<svg xmlns="http://www.w3.org/2000/svg" viewBox="-467.5 -254.5 935 509" width="935" height="509" style="background-color: rgb(255, 255, 255);"><rect id="background" height="509" width="935" y="-254.5" x="-467.5" stroke-width="0" stroke="#000000" fill="#ffffff"/><text x="213.41565190430907" y="178.7545057765945" z="-0.9947855816224536" font-family="Verdana" font-size="11" fill="rgb(0,0,0)">Axis 1 (52.06 %)</text><text x="-215.8990372003717" y="-179.72796679132816" z="-0.9947855816224536" font-family="Verdana" font-size="11" fill="rgb(0,0,0)">Axis 2 (42.42 %)</text><text x="152.38264333375358" y="-103.88849701983365" z="-0.9948555851226285" font-family="Verdana" font-size="11" fill="rgb(192,192,192)">d__Bacteria;p__Bacillota_A_368345;c__Clostridia_258483;o__Oscillospirales;f__Ruminococcaceae;g__Faecalibacterium</text><path d="M213.41565190430907,178.7545057765945L-215.8990372003717,178.7545057765945M-215.8990372003717,-179.72796679132816L-215.8990372003717,178.7545057765945M-215.8990372003717,178.75450577659453L-215.8990372003717,178.7545057765945" style="fill:none;stroke:rgb(0,0,0);stroke-opacity:1;stroke-width:3;stroke-linecap:round"/><path d="M130.33530646105353,-80.52300384780035L126.30638815252152,-75.86005288132782L153.0663256147293,-104.61826855770408zM120.5574852016925,-85.33682820945906L127.05143574517419,-85.83860143327051L153.22150137933164,-104.43098066602869zM126.28756279704504,-86.23276057836605L130.27358670879855,-79.7123126017465L153.13316560406085,-104.5391681267656zM120.61831023203796,-79.79147575291333L127.57800415132435,-75.88426733790917L125.72744805961626,-82.41862863901179zM121.123149122455,-86.47399216679021L121.07149741111097,-79.00673881505531L126.24245872541717,-81.64007972603594z" style="fill:rgb(192,192,192);fill-opacity:1"/><path d="M17.738466400447397,6.953292962383253L125.45380794709236,-81.7201390233903" style="fill:none;stroke:rgb(192,192,192);stroke-opacity:1;stroke-width:1;stroke-linecap:round"/><path d="M126.79182456071548,-75.74756957447438L131.17217091865797,-80.80793865350942L124.81518936226966,-82.2774590624051zM127.62108121114508,-86.6016294937388L120.6112841552461,-85.91660751844088L125.6692215731459,-80.91981530013523zM131.09947774815583,-79.97450323610916L126.82650582668268,-86.99835937144653L124.83949614840468,-81.34302070287913z" style="fill:rgb(192,192,192);fill-opacity:1"/><path d="M26.43486519223065,-107.29670428047243L22.63782363053852,-106.53480235594435L24.187464379909333,-106.57345268035408z" style="fill:rgb(0,0,28);fill-opacity:1"/><path d="M24.48726527184685,-107.18985242002398L27.0548248711259,-106.08490606967733L28.008829608543238,-107.13020082706954z" style="fill:rgb(0,0,25);fill-opacity:1"/><path d="M27.421724809726932,-106.99323372728716L25.807321017099387,-106.86564792459973L29.726412281864214,-105.13587179915002z" style="fill:rgb(0,0,67);fill-opacity:1"/><path d="M21.171728434587987,-99.2559414770159L23.83801311495184,-97.04859421885888L24.84587329596413,-98.0881672840766z" style="fill:rgb(0,0,69);fill-opacity:1"/><path d="M24.192584194586924,-97.94488521379994L22.631998735662524,-97.86028687296933L26.435570272429054,-97.17732502744818z" style="fill:rgb(0,0,23);fill-opacity:1"/><path d="M28.30082550075114,-97.88352456662956L26.72622132917531,-97.99063495930615L24.523872921589536,-97.10833758828173z" style="fill:rgb(0,0,21);fill-opacity:1"/><path d="M24.2274072382062,-107.42151446600084L21.157631037789873,-105.26153948643903L23.366064826175904,-105.26799441658746z" style="fill:rgb(0,0,73);fill-opacity:1"/><path d="M29.13833644974539,-106.07726643745085L26.949935609045564,-105.89763551670943L30.577418326119194,-103.37042588197943z" style="fill:rgb(0,0,96);fill-opacity:1"/><path d="M20.319027781963555,-101.0703214142476L21.908850414493884,-98.16078906461577L23.917504372826897,-98.81101811598519z" style="fill:rgb(0,0,103);fill-opacity:1"/><path d="M29.77553107811503,-99.12336815950708L27.406891299890933,-99.32574201931037L26.87754747401654,-96.98729788314348z" style="fill:rgb(0,0,63);fill-opacity:1"/><path d="M22.2199282499301,-106.5364461372649L20.25892948962563,-103.53084837574842L22.928513768442556,-103.71601787224833z" style="fill:rgb(0,0,105);fill-opacity:1"/><path d="M30.35997575757455,-104.57053123307202L27.732801391292742,-104.39744358431074L30.721130163062845,-101.41079921070435z" style="fill:rgb(0,0,110);fill-opacity:1"/><path d="M20.195823534259684,-103.06820776019899L20.654678968136782,-99.70989682344847L23.14666313986788,-100.23057781925372z" style="fill:rgb(0,0,120);fill-opacity:1"/><path d="M30.691802433477612,-100.80627131215688L27.895335745080438,-100.83842163013539L28.81656326763815,-97.95945110343438z" style="fill:rgb(0,0,93);fill-opacity:1"/><path d="M25.931260060112397,-107.6810391711273L23.185766733283703,-106.50625392731294L25.985649315578875,-106.21766621833062z" style="fill:rgb(0,0,62);fill-opacity:1"/><path d="M25.0024343813989,-107.72701597895953L25.00170741426026,-106.00034006341171L27.704255049560356,-106.67760327439962z" style="fill:rgb(0,0,61);fill-opacity:1"/><path d="M25.97926038183743,-98.28288376167153L23.175673765188854,-97.88260619822293L25.94774196194869,-96.81700715432298z" style="fill:rgb(0,0,57);fill-opacity:1"/><path d="M27.723350084086313,-97.99681297528L24.56524586890275,-98.07859412207824L25.41980089223045,-96.9070900168592z" style="fill:rgb(0,0,56);fill-opacity:1"/><path d="M20.844540602297478,-104.98287260341432L20.080740330284147,-101.58620053304371L22.812729525248468,-101.96717798533258z" style="fill:rgb(0,0,120);fill-opacity:1"/><path d="M30.902253330838594,-102.71687606329468L28.05194429126822,-102.61450608439168L30.11886487425757,-99.5198231615113z" style="fill:rgb(0,0,109);fill-opacity:1"/><path d="M25.029370764003485,-107.02257291396313L23.156996282140213,-107.17852381566904L22.66641404508056,-104.79365672140474z" style="fill:rgb(0,0,73);fill-opacity:1"/><path d="M25.94300595994639,-107.20679771220739L27.79969045352147,-105.05416334916832L29.77761090038044,-105.69008730765162z" style="fill:rgb(0,0,67);fill-opacity:1"/><path d="M23.233205578173095,-99.20414177186133L21.099922291802567,-99.01286612824104L24.95763777037052,-97.21940016185856z" style="fill:rgb(0,0,69);fill-opacity:1"/><path d="M28.41736187122409,-99.63733194512791L25.94060637331786,-97.26187420068531L27.60032361842828,-97.49349683413816z" style="fill:rgb(0,0,63);fill-opacity:1"/><path d="M23.78715444549602,-106.08178276824101L21.34541421516559,-106.0854828936064L22.315674175066544,-103.1780621742923z" style="fill:rgb(0,0,105);fill-opacity:1"/><path d="M27.247082000943163,-106.36643613676385L28.365685517183337,-103.4300205939192L30.793767682349397,-103.9868556545786z" style="fill:rgb(0,0,96);fill-opacity:1"/><path d="M22.65209039517864,-100.85855576138314L20.094320058407206,-100.65057425323842L23.658127300132744,-98.09501403110508z" style="fill:rgb(0,0,103);fill-opacity:1"/><path d="M28.69292006645765,-101.32235042561896L27.193875367145676,-98.19972564164003L29.476034684863002,-98.52005252758957z" style="fill:rgb(0,0,93);fill-opacity:1"/><path d="M26.939672910723957,-107.05361899428571L24.497916524407685,-106.84842329223117L28.678179521542116,-105.09271116452003z" style="fill:rgb(0,0,166);fill-opacity:1"/><path d="M22.22957443811917,-99.3457127070477L24.059458821565247,-97.26792858259716L26.406270737836316,-97.77906169030652z" style="fill:rgb(0,0,165);fill-opacity:1"/><path d="M22.9196801001428,-104.56435496633975L20.199162494909565,-104.45702899068819L22.28852891294592,-101.35739007105917z" style="fill:rgb(0,0,120);fill-opacity:1"/><path d="M28.187192204559533,-104.91890123882872L28.473659862036584,-101.56288354926913L31.10935016332445,-102.05446633369276z" style="fill:rgb(0,0,110);fill-opacity:1"/><path d="M22.531669295931586,-102.73019806605438L19.772673995643956,-102.55492067801423L22.73652743269837,-99.56608656512904z" style="fill:rgb(0,0,120);fill-opacity:1"/><path d="M28.6654637688395,-103.14247605041825L28.073923091396843,-99.72392243744997L30.664314585959854,-100.14228391503296z" style="fill:rgb(0,0,109);fill-opacity:1"/><path d="M25.99447012452551,-107.17881190706876L23.232932801008698,-106.92999421303966L25.87527318344077,-104.88594733092849z" style="fill:rgb(0,0,168);fill-opacity:1"/><path d="M25.072554896297575,-99.6320203587756L25.00170741426026,-97.10385318504349L27.63413453466168,-97.65682943613228z" style="fill:rgb(0,0,162);fill-opacity:1"/><path d="M24.161716541281027,-107.36208985054492L22.201521185693583,-105.23087390414383L26.33206627054612,-105.35808461433858z" style="fill:rgb(0,0,168);fill-opacity:1"/><path d="M28.711472882449144,-99.19735284485881L24.53579316913096,-99.07721241668098L26.868502905093653,-97.16184280042114z" style="fill:rgb(0,0,162);fill-opacity:1"/><path d="M25.020901556872925,-107.40229719364507L24.978959679632034,-105.03410332075131L28.813047352046528,-105.51464785463095z" style="fill:rgb(0,0,166);fill-opacity:1"/><path d="M25.980632685913637,-99.32655745256356L22.090544412953438,-98.9956414958725L25.926987266775924,-97.11420911352486z" style="fill:rgb(0,0,165);fill-opacity:1"/><path d="M28.191552094518773,-106.10056238714519L24.50892633327424,-105.83270968364847L29.25781333349877,-103.41205576534604z" style="fill:rgb(0,0,239);fill-opacity:1"/><path d="M21.661800970186242,-101.0633673442762L22.78502615068842,-98.27370740404602L26.40595407202804,-98.70505384652634z" style="fill:rgb(0,0,241);fill-opacity:1"/><path d="M22.869763116214017,-106.38111375657009L21.614000833440038,-103.55499222343316L26.36901724324865,-103.8472064052584z" style="fill:rgb(0,0,243);fill-opacity:1"/><path d="M29.316572456192805,-100.84579967559526L24.528055930019377,-100.62535945340566L28.1136633750796,-98.13298491672572z" style="fill:rgb(0,0,237);fill-opacity:1"/><path d="M25.98505540049266,-106.13550734189344L22.12068381856513,-105.87242071687666L25.89242514658521,-103.3373997773696z" style="fill:rgb(0,0,243);fill-opacity:1"/><path d="M25.05441380334738,-101.16893858928067L24.978959679632034,-98.22502660640222L28.779535105572073,-98.64816339916567z" style="fill:rgb(0,0,237);fill-opacity:1"/><path d="M25.029488855397798,-106.37506866088597L24.974712220401287,-103.49526965376383L29.546718574038454,-103.91297407061185z" style="fill:rgb(0,0,239);fill-opacity:1"/><path d="M29.0627671651629,-104.57114468594838L24.516330307896666,-104.2871469314704L29.376360533952518,-101.52048241066832z" style="fill:rgb(0,0,276);fill-opacity:1"/><path d="M21.559780778316494,-102.97368328288864L21.899124897621423,-99.81412753268006L26.396709271244482,-100.22087158733248z" style="fill:rgb(0,0,279);fill-opacity:1"/><path d="M25.97999732000462,-100.88858790587446L21.363543160533947,-100.58564842017746L25.91661282381838,-98.12990771967472z" style="fill:rgb(0,0,241);fill-opacity:1"/><path d="M29.44785340954884,-102.72561560096895L24.52227381633399,-102.45678949973784L28.985330781129253,-99.66880020849086z" style="fill:rgb(0,0,275);fill-opacity:1"/><path d="M21.970661513585295,-104.83689335968836L21.499334751107966,-101.66557108598475L26.385618682489138,-102.0337866761175z" style="fill:rgb(0,0,280);fill-opacity:1"/><path d="M25.043965350164946,-102.99536393620933L24.974712220401287,-99.81022384117087L29.532242079271306,-100.20309462552099z" style="fill:rgb(0,0,275);fill-opacity:1"/><path d="M25.981505797839194,-104.57359678163033L21.376890643593693,-104.29931240603433L25.90175686292406,-101.50586484042245z" style="fill:rgb(0,0,280);fill-opacity:1"/><path d="M25.036397099983404,-104.82531400146392L24.973818641056813,-101.6585906685143L29.79985909323157,-102.0523464518124z" style="fill:rgb(0,0,276);fill-opacity:1"/><path d="M25.980138483835102,-102.73110754879336L21.111791950722115,-102.4446240251739L25.90906768536548,-99.6754737352304z" style="fill:rgb(0,0,279);fill-opacity:1"/><path d="M-55.33478038945012,-131.57486769067702L-59.13182195114225,-130.81296576614892L-57.58218120177144,-130.85161609055868z" style="fill:rgb(0,0,28);fill-opacity:1"/><path d="M-57.28238030983392,-131.46801583022858L-54.714820710554896,-130.36306947988194L-53.76081597313751,-131.4083642372741z" style="fill:rgb(0,0,25);fill-opacity:1"/><path d="M-54.34792077195384,-131.27139713749173L-55.96232456458139,-131.1438113348043L-52.04323329981656,-129.41403520935464z" style="fill:rgb(0,0,67);fill-opacity:1"/><path d="M-60.597917147092765,-123.53410488722051L-57.931632466728935,-121.32675762906342L-56.92377228571665,-122.36633069428116z" style="fill:rgb(0,0,69);fill-opacity:1"/><path d="M-57.57706138709385,-122.22304862400448L-59.13764684601825,-122.13845028317388L-55.33407530925171,-121.45548843765279z" style="fill:rgb(0,0,23);fill-opacity:1"/><path d="M-53.468820080929625,-122.16168797683412L-55.04342425250545,-122.26879836951069L-57.24577266009125,-121.38650099848634z" style="fill:rgb(0,0,21);fill-opacity:1"/><path d="M-57.54223834347458,-131.69967787620544L-60.61201454389089,-129.53970289664363L-58.403580755504855,-129.546157826792z" style="fill:rgb(0,0,73);fill-opacity:1"/><path d="M-52.63130913193539,-130.35542984765544L-54.81970997263521,-130.175798926914L-51.19222725556158,-127.64858929218398z" style="fill:rgb(0,0,96);fill-opacity:1"/><path d="M-61.45061779971721,-125.3484848244522L-59.860795167186886,-122.43895247482037L-57.85214120885387,-123.08918152618979z" style="fill:rgb(0,0,103);fill-opacity:1"/><path d="M-51.99411450356575,-123.4015315697117L-54.36275428178985,-123.60390542951497L-54.892098107664225,-121.26546129334803z" style="fill:rgb(0,0,63);fill-opacity:1"/><path d="M-59.54971733175067,-130.8146095474695L-61.51071609205513,-127.80901178595298L-58.84113181323822,-127.99418128245289z" style="fill:rgb(0,0,105);fill-opacity:1"/><path d="M-51.409669824106224,-128.84869464327656L-54.03684419038803,-128.67560699451528L-51.048515418617924,-125.68896262090897z" style="fill:rgb(0,0,110);fill-opacity:1"/><path d="M-61.57382204742109,-127.34637117040359L-61.114966613543984,-123.98806023365307L-58.622982441812894,-124.50874122945832z" style="fill:rgb(0,0,120);fill-opacity:1"/><path d="M-51.077843148203165,-125.08443472236148L-53.87430983660033,-125.11658504033998L-52.953082314042625,-122.23761451363897z" style="fill:rgb(0,0,93);fill-opacity:1"/><path d="M-55.838385521568384,-131.95920258133188L-58.58387884839706,-130.78441733751754L-55.78399626610189,-130.4958296285352z" style="fill:rgb(0,0,62);fill-opacity:1"/><path d="M-56.76721120028187,-132.00517938916414L-56.76793816742051,-130.2785034736163L-54.06539053212042,-130.95576668460419z" style="fill:rgb(0,0,61);fill-opacity:1"/><path d="M-55.790385199843335,-122.56104717187608L-58.593971816491916,-122.16076960842749L-55.82190361973208,-121.09517056452758z" style="fill:rgb(0,0,57);fill-opacity:1"/><path d="M-54.04629549759445,-122.27497638548454L-57.204399712778034,-122.35675753228277L-56.349844689450315,-121.18525342706384z" style="fill:rgb(0,0,56);fill-opacity:1"/><path d="M-60.925104979383285,-129.26103601361885L-61.68890525139663,-125.8643639432483L-58.9569160564323,-126.24534139553718z" style="fill:rgb(0,0,120);fill-opacity:1"/><path d="M-50.86739225084218,-126.99503947349928L-53.717701290412556,-126.89266949459628L-51.6507807074232,-123.7979865717159z" style="fill:rgb(0,0,109);fill-opacity:1"/><path d="M-56.74027481767728,-131.30073632416773L-58.61264929954056,-131.45668722587362L-59.10323153660021,-129.07182013160931z" style="fill:rgb(0,0,73);fill-opacity:1"/><path d="M-55.82663962173438,-131.484961122412L-53.969955128159306,-129.33232675937288L-51.99203468130034,-129.96825071785622z" style="fill:rgb(0,0,67);fill-opacity:1"/><path d="M-58.536440003507664,-123.48230518206594L-60.6697232898782,-123.29102953844566L-56.81200781131026,-121.49756357206309z" style="fill:rgb(0,0,69);fill-opacity:1"/><path d="M-53.3522837104567,-123.91549535533251L-55.82903920836291,-121.54003761088985L-54.16932196325248,-121.77166024434273z" style="fill:rgb(0,0,63);fill-opacity:1"/><path d="M-57.98249113618475,-130.3599461784456L-60.42423136651517,-130.36364630381098L-59.45397140661423,-127.45622558449685z" style="fill:rgb(0,0,105);fill-opacity:1"/><path d="M-54.52256358073761,-130.64459954696844L-53.40396006449744,-127.70818400412375L-50.97587789933137,-128.26501906478316z" style="fill:rgb(0,0,96);fill-opacity:1"/><path d="M-53.076725515223124,-125.60051383582356L-54.575770214535105,-122.47788905184463L-52.29361089681777,-122.79821593779417z" style="fill:rgb(0,0,93);fill-opacity:1"/><path d="M-59.11755518650213,-125.13671917158774L-61.67532552327356,-124.92873766344302L-58.11151828154803,-122.37317744130968z" style="fill:rgb(0,0,103);fill-opacity:1"/><path d="M-54.82997267095681,-131.3317824044903L-57.271729057273085,-131.12658670243576L-53.091466060138664,-129.3708745747246z" style="fill:rgb(0,0,166);fill-opacity:1"/><path d="M-59.54007114356159,-123.6238761172523L-57.71018676011553,-121.54609199280172L-55.363374843844454,-122.05722510051108z" style="fill:rgb(0,0,165);fill-opacity:1"/><path d="M-53.58245337712124,-129.19706464903328L-53.29598571964419,-125.84104695947374L-50.66029541835632,-126.33262974389734z" style="fill:rgb(0,0,110);fill-opacity:1"/><path d="M-59.23797628574918,-127.00836147625898L-61.99697158603682,-126.83308408821883L-59.0331181489824,-123.84424997533364z" style="fill:rgb(0,0,120);fill-opacity:1"/><path d="M-53.104181812841276,-127.42063946062285L-53.69572249028393,-124.00208584765457L-51.10533099572092,-124.42044732523756z" style="fill:rgb(0,0,109);fill-opacity:1"/><path d="M-58.84996548153797,-128.8425183765443L-61.570483086771205,-128.73519240089274L-59.48111666873484,-125.63555348126378z" style="fill:rgb(0,0,120);fill-opacity:1"/><path d="M-55.77517545715526,-131.45697531727336L-58.53671278067207,-131.20815762324423L-55.89437239824001,-129.16411074113307z" style="fill:rgb(0,0,168);fill-opacity:1"/><path d="M-56.69709068538319,-123.9101837689802L-56.76793816742051,-121.38201659524805L-54.1355110470191,-121.93499284633684z" style="fill:rgb(0,0,162);fill-opacity:1"/><path d="M-57.607929040399746,-131.64025326074952L-59.568124395987184,-129.5090373143484L-55.43757931113465,-129.63624802454316z" style="fill:rgb(0,0,168);fill-opacity:1"/><path d="M-53.05817269923164,-123.47551625506343L-57.2338524125498,-123.35537582688559L-54.90114267658712,-121.44000621062567z" style="fill:rgb(0,0,162);fill-opacity:1"/><path d="M-55.78901289576713,-123.60472086276816L-59.67910116872733,-123.2738049060771L-55.84265831490485,-121.39237252372942z" style="fill:rgb(0,0,165);fill-opacity:1"/><path d="M-56.74874402480785,-131.68046060384964L-56.790685902048736,-129.31226673095588L-52.956598229634245,-129.79281126483556z" style="fill:rgb(0,0,166);fill-opacity:1"/><path d="M-53.578093487162,-130.37872579734977L-57.26071924840653,-130.11087309385306L-52.511832248182,-127.6902191755506z" style="fill:rgb(0,0,239);fill-opacity:1"/><path d="M-60.10784461149453,-125.3415307544808L-58.98461943099235,-122.55187081425062L-55.363691509652725,-122.98321725673094z" style="fill:rgb(0,0,241);fill-opacity:1"/><path d="M-58.89988246546675,-130.65927716677467L-60.15564474824073,-127.83315563363772L-55.40062833843212,-128.12536981546296z" style="fill:rgb(0,0,243);fill-opacity:1"/><path d="M-52.45307312548796,-125.12396308579986L-57.24158965166139,-124.90352286361026L-53.65598220660118,-122.41114832693032z" style="fill:rgb(0,0,237);fill-opacity:1"/><path d="M-55.78459018118811,-130.41367075209803L-59.648961763115636,-130.15058412708126L-55.877220435095566,-127.61556318757414z" style="fill:rgb(0,0,243);fill-opacity:1"/><path d="M-56.71523177833339,-125.44710199948527L-56.790685902048736,-122.50319001660682L-52.990110476108704,-122.92632680937027z" style="fill:rgb(0,0,237);fill-opacity:1"/><path d="M-56.74015672628297,-130.65323207109054L-56.79493336127948,-127.77343306396838L-52.22292700764232,-128.19113748081642z" style="fill:rgb(0,0,239);fill-opacity:1"/><path d="M-52.706878416517874,-128.84930809615292L-57.253315273784104,-128.56531034167494L-52.393285047728256,-125.79864582087293z" style="fill:rgb(0,0,276);fill-opacity:1"/><path d="M-60.209864803364276,-127.25184669309324L-59.87052068405935,-124.09229094288466L-55.37293631043628,-124.49903499753708z" style="fill:rgb(0,0,279);fill-opacity:1"/><path d="M-55.78964826167615,-125.16675131607906L-60.40610242114683,-124.86381183038206L-55.85303275786239,-122.40807112987932z" style="fill:rgb(0,0,241);fill-opacity:1"/><path d="M-59.79898406809548,-129.1150567698929L-60.2703108305728,-125.94373449618935L-55.38402689919163,-126.3119500863221z" style="fill:rgb(0,0,280);fill-opacity:1"/><path d="M-52.321792172131936,-127.00377901117355L-57.247371765346784,-126.73495290994244L-52.78431480055151,-123.94696361869546z" style="fill:rgb(0,0,275);fill-opacity:1"/><path d="M-55.78813978384158,-128.85176019183487L-60.39275493808708,-128.5774758162389L-55.8678887187567,-125.78402825062705z" style="fill:rgb(0,0,280);fill-opacity:1"/><path d="M-56.725680231515824,-127.27352734641393L-56.79493336127948,-124.08838725137547L-52.237403502409464,-124.48125803572559z" style="fill:rgb(0,0,275);fill-opacity:1"/><path d="M-56.733248481697366,-129.10347741166848L-56.795826940623954,-125.93675407871889L-51.96978648844921,-126.330509862017z" style="fill:rgb(0,0,276);fill-opacity:1"/><path d="M-55.78950709784567,-127.00927095899796L-60.65785363095865,-126.72278743537849L-55.86057789631529,-123.953637145435z" style="fill:rgb(0,0,279);fill-opacity:1"/><path d="M8.284450720668147,158.1821469425116L4.487409158976015,158.9440488670397L6.037049908346827,158.90539854262994z" style="fill:rgb(28,0,0);fill-opacity:1"/><path d="M6.336850800284347,158.28899880296004L8.904410399563385,159.3939451533067L9.858415136980748,158.3486503959145z" style="fill:rgb(25,0,0);fill-opacity:1"/><path d="M9.271310338164428,158.48561749569689L7.656906545536882,158.61320329838432L11.575997810301716,160.34297942383395z" style="fill:rgb(67,0,0);fill-opacity:1"/><path d="M3.021313963025487,166.22290974596814L5.687598643389329,168.43025700412517L6.695458824401627,167.39068393890742z" style="fill:rgb(69,0,0);fill-opacity:1"/><path d="M6.042169723024421,167.5339660091841L4.481584264100018,167.6185643500147L8.28515580086655,168.30152619553587z" style="fill:rgb(23,0,0);fill-opacity:1"/><path d="M10.150411029188643,167.59532665635447L8.575806857612804,167.48821626367788L6.373458450027035,168.37051363470232z" style="fill:rgb(21,0,0);fill-opacity:1"/><path d="M6.076992766643698,158.05733675698318L3.0072165662273687,160.21731173654496L5.215650354613403,160.21085680639658z" style="fill:rgb(73,0,0);fill-opacity:1"/><path d="M10.987921978182888,159.40158478553315L8.79952113748306,159.58121570627458L12.42700385455669,162.10842534100462z" style="fill:rgb(96,0,0);fill-opacity:1"/><path d="M2.168613310401055,164.40852980873643L3.758435942931382,167.31806215836826L5.767089901264395,166.66783310699884z" style="fill:rgb(103,0,0);fill-opacity:1"/><path d="M11.62511660655253,166.35548306347695L9.256476828328426,166.15310920367367L8.727133002454043,168.49155333984055z" style="fill:rgb(63,0,0);fill-opacity:1"/><path d="M4.069513778367595,158.9424050857191L2.108515018063133,161.9480028472356L4.778099296880052,161.76283335073572z" style="fill:rgb(105,0,0);fill-opacity:1"/><path d="M2.0454090626971895,162.41064346278503L2.504264496574277,165.76895439953555L4.996248668305375,165.2482734037303z" style="fill:rgb(120,0,0);fill-opacity:1"/><path d="M12.209561286012043,160.90831998991203L9.582386919730238,161.0814076386733L12.570715691500352,164.06805201227962z" style="fill:rgb(110,0,0);fill-opacity:1"/><path d="M12.541387961915108,164.67257991082715L9.744921273517935,164.64042959284865L10.666148796075648,167.51940011954966z" style="fill:rgb(93,0,0);fill-opacity:1"/><path d="M7.780845588549888,157.79781205185674L5.035352261721198,158.97259729567108L7.835234844016378,159.2611850046534z" style="fill:rgb(62,0,0);fill-opacity:1"/><path d="M6.8520199098363985,157.75183524402448L6.851292942697755,159.47851115957232L9.553840577997851,158.80124794858443z" style="fill:rgb(61,0,0);fill-opacity:1"/><path d="M7.8288459102749295,167.1959674613125L5.025259293626353,167.5962450247611L7.7973274903861824,168.66184406866108z" style="fill:rgb(57,0,0);fill-opacity:1"/><path d="M9.572935612523805,167.48203824770403L6.414831397340252,167.40025710090578L7.269386420667947,168.57176120612488z" style="fill:rgb(56,0,0);fill-opacity:1"/><path d="M2.6941261307349778,160.49597861956974L1.9303258587216432,163.89265068994027L4.66231505368597,163.51167323765142z" style="fill:rgb(120,0,0);fill-opacity:1"/><path d="M12.751838859276095,162.7619751596893L9.90152981970572,162.8643451385923L11.968450402695067,165.95902806147276z" style="fill:rgb(109,0,0);fill-opacity:1"/><path d="M6.878956292440985,158.45627830902092L5.006581810577708,158.300327407315L4.515999573518053,160.68519450157925z" style="fill:rgb(73,0,0);fill-opacity:1"/><path d="M7.79259148838388,158.27205351077666L9.649275981958965,160.42468787381566L11.627196428817948,159.7887639153324z" style="fill:rgb(67,0,0);fill-opacity:1"/><path d="M5.082791106610592,166.2747094511227L2.9495078202400657,166.465985094743L6.807223298808019,168.25945106112547z" style="fill:rgb(69,0,0);fill-opacity:1"/><path d="M10.266947399661584,165.84151927785615L7.790191901755352,168.2169770222987L9.449909146865785,167.98535438884588z" style="fill:rgb(63,0,0);fill-opacity:1"/><path d="M5.636739973933517,159.397068454743L3.1949997436030926,159.3933683293776L4.16525970350404,162.30078904869174z" style="fill:rgb(105,0,0);fill-opacity:1"/><path d="M9.096667529380664,159.11241508622015L10.215271045620831,162.04883062906484L12.643353210786891,161.49199556840543z" style="fill:rgb(96,0,0);fill-opacity:1"/><path d="M4.501675923616137,164.62029546160088L1.943905586844705,164.82827696974562L5.507712828570241,167.38383719187897z" style="fill:rgb(103,0,0);fill-opacity:1"/><path d="M10.542505594895145,164.15650079736506L9.043460895583172,167.279125581344L11.325620213300502,166.95879869539448z" style="fill:rgb(93,0,0);fill-opacity:1"/><path d="M8.789258439161447,158.42523222869832L6.347502052845178,158.63042793075286L10.527765049979621,160.38614005846398z" style="fill:rgb(166,0,0);fill-opacity:1"/><path d="M4.079159966556665,166.13313851593637L5.90904435000274,168.21092264038685L8.255856266273817,167.6997895326775z" style="fill:rgb(165,0,0);fill-opacity:1"/><path d="M10.03677773299703,160.5599499841553L10.323245390474083,163.91596767371487L12.958935691761951,163.42438488929125z" style="fill:rgb(110,0,0);fill-opacity:1"/><path d="M4.381254824369087,162.74865315692963L1.6222595240814592,162.92393054496978L4.586112961135862,165.91276465785498z" style="fill:rgb(120,0,0);fill-opacity:1"/><path d="M10.515049297277004,162.33637517256574L9.923508619834342,165.75492878553405L12.513900114397345,165.3365673079511z" style="fill:rgb(109,0,0);fill-opacity:1"/><path d="M4.769265628580298,160.9144962566443L2.0487480233470596,161.02182223229585L4.138114441383422,164.12146115192482z" style="fill:rgb(120,0,0);fill-opacity:1"/><path d="M7.844055652963006,158.30003931591526L5.0825183294461915,158.54885700994438L7.724858711878267,160.59290389205552z" style="fill:rgb(168,0,0);fill-opacity:1"/><path d="M6.922140424735073,165.84683086420844L6.851292942697755,168.37499803794054L9.483720063099177,167.82202178685174zM10.561058410886638,166.2814983781252L6.38537869756846,166.40163880630305L8.718088433531147,168.3170084225629z" style="fill:rgb(162,0,0);fill-opacity:1"/><path d="M6.011302069718522,158.11676137243913L4.051106714131077,160.24797731884016L8.181651798983623,160.12076660864543z" style="fill:rgb(168,0,0);fill-opacity:1"/><path d="M6.870487085310419,158.07655402933898L6.8285452080695315,160.4447479022327L10.662632880484026,159.96420336835303z" style="fill:rgb(166,0,0);fill-opacity:1"/><path d="M7.830218214351134,166.15229377042047L3.940129941390936,166.48320972711153L7.776572795213421,168.36464210945917z" style="fill:rgb(165,0,0);fill-opacity:1"/><path d="M10.041137622956272,159.37828883583882L6.358511861711738,159.64614153933553L11.107398861936261,162.066795457638z" style="fill:rgb(239,0,0);fill-opacity:1"/><path d="M3.5113864986237404,164.41548387870782L4.634611679125915,167.205143818938L8.25553960046554,166.7737973764577z" style="fill:rgb(241,0,0);fill-opacity:1"/><path d="M11.166157984630303,164.63305154738876L6.377641458456873,164.85349176957837L9.963248903517098,167.34586630625833z" style="fill:rgb(237,0,0);fill-opacity:1"/><path d="M4.719348644651511,159.09773746641392L3.4635863618775398,161.92385899955087L8.218602771686145,161.63164481772563zM7.834640928930155,159.34334388109056L3.97026934700263,159.60643050610733L7.742010675022705,162.14145144561445z" style="fill:rgb(243,0,0);fill-opacity:1"/><path d="M6.903999331784876,164.30991263370336L6.8285452080695315,167.25382461658182L10.62912063400957,166.83068782381835z" style="fill:rgb(237,0,0);fill-opacity:1"/><path d="M6.879074383835297,159.10378256209805L6.824297748838782,161.9835815692202L11.39630410247595,161.56587715237217z" style="fill:rgb(239,0,0);fill-opacity:1"/><path d="M10.912352693600395,160.90770653703566L6.36591583633416,161.19170429151364L11.225946062390019,163.95836881231565z" style="fill:rgb(276,0,0);fill-opacity:1"/><path d="M3.4093663067539923,162.50516794009536L3.74871042605892,165.664723690304L8.24629479968198,165.25797963565154z" style="fill:rgb(279,0,0);fill-opacity:1"/><path d="M7.829582848442119,164.59026331710956L3.213128688971444,164.89320280280657L7.766198352255876,167.34894350330933z" style="fill:rgb(241,0,0);fill-opacity:1"/><path d="M3.820247042022792,160.6419578632957L3.3489202795454664,163.81328013699925L8.235204210926634,163.4450645468665z" style="fill:rgb(280,0,0);fill-opacity:1"/><path d="M11.297438937986337,162.75323562201504L6.371859344771486,163.02206172324617L10.834916309566752,165.81005101449318z" style="fill:rgb(275,0,0);fill-opacity:1"/><path d="M7.83109132627669,160.90525444135372L3.226476172031189,161.1795388169497L7.751342391361559,163.97298638256154z" style="fill:rgb(280,0,0);fill-opacity:1"/><path d="M6.8935508786024435,162.48348728677468L6.824297748838782,165.66862738181317L11.381827607708804,165.27575659746304z" style="fill:rgb(275,0,0);fill-opacity:1"/><path d="M6.885982628420898,160.6535372215201L6.82340416949431,163.8202605544697L11.64944462166907,163.4265047711716z" style="fill:rgb(276,0,0);fill-opacity:1"/><path d="M7.829724012272598,162.74774367419064L2.9613774791596166,163.0342271978101L7.758653213802973,165.80337748775364z" style="fill:rgb(279,0,0);fill-opacity:1"/><path d="M190.48305405121226,99.03582025102307L186.68601248952012,99.79772217555123L188.23565323889093,99.75907185114147z" style="fill:rgb(28,0,0);fill-opacity:1"/><path d="M188.53545413082847,99.14267211147153L191.10301373010753,100.24761846181823L192.0570184675248,99.20232370442601z" style="fill:rgb(25,0,0);fill-opacity:1"/><path d="M191.46991366870853,99.33929080420839L189.855509876081,99.46687660689584L193.77460114084585,101.19665273234548z" style="fill:rgb(67,0,0);fill-opacity:1"/><path d="M185.2199172935696,107.07658305447961L187.88620197393342,109.28393031263668L188.89406215494574,108.24435724741895z" style="fill:rgb(69,0,0);fill-opacity:1"/><path d="M188.24077305356852,108.38763931769562L186.6801875946441,108.47223765852623L190.4837591314107,109.15519950404735z" style="fill:rgb(23,0,0);fill-opacity:1"/><path d="M192.34901435973276,108.44899996486599L190.7744101881569,108.3418895721894L188.57206178057115,109.2241869432138z" style="fill:rgb(21,0,0);fill-opacity:1"/><path d="M188.2755960971878,98.91101006549471L185.2058198967715,101.07098504505649L187.41425368515755,101.06453011490807z" style="fill:rgb(73,0,0);fill-opacity:1"/><path d="M193.186525308727,100.25525809404468L190.99812446802719,100.4348890147861L194.62560718510082,102.96209864951612z" style="fill:rgb(96,0,0);fill-opacity:1"/><path d="M184.36721664094517,105.26220311724796L185.9570392734755,108.17173546687975L187.96569323180853,107.52150641551032z" style="fill:rgb(103,0,0);fill-opacity:1"/><path d="M193.82371993709666,107.20915637198843L191.45508015887253,107.00678251218515L190.92573633299816,109.34522664835208z" style="fill:rgb(63,0,0);fill-opacity:1"/><path d="M186.26811710891172,99.79607839423062L184.30711834860725,102.80167615574713L186.97670262742417,102.61650665924722z" style="fill:rgb(105,0,0);fill-opacity:1"/><path d="M194.40816461655618,101.76199329842353L191.78099025027436,101.93508094718483L194.76931902204444,104.92172532079115z" style="fill:rgb(110,0,0);fill-opacity:1"/><path d="M184.2440123932413,103.26431677129654L184.70286782711838,106.62262770804708L187.19485199884951,106.10194671224183z" style="fill:rgb(120,0,0);fill-opacity:1"/><path d="M194.73999129245925,105.52625321933868L191.94352460406205,105.49410290136016L192.86475212661975,108.37307342806113z" style="fill:rgb(93,0,0);fill-opacity:1"/><path d="M189.97944891909404,98.65148536036823L187.2339555922653,99.82627060418261L190.0338381745605,100.11485831316493z" style="fill:rgb(62,0,0);fill-opacity:1"/><path d="M189.05062324038053,98.605508552536L189.04989627324187,100.33218446808384L191.75244390854195,99.65492125709594z" style="fill:rgb(61,0,0);fill-opacity:1"/><path d="M190.02744924081907,108.04964076982402L187.22386262417047,108.44991833327262L189.99593082093028,109.51551737717254z" style="fill:rgb(57,0,0);fill-opacity:1"/><path d="M191.77153894306792,108.33571155621556L188.61343472788437,108.25393040941732L189.46798975121206,109.42543451463631z" style="fill:rgb(56,0,0);fill-opacity:1"/><path d="M184.8927294612791,101.34965192808123L184.12892918926576,104.74632399845181L186.86091838423008,104.36534654616294z" style="fill:rgb(120,0,0);fill-opacity:1"/><path d="M194.9504421898202,103.61564846820085L192.10013315024983,103.71801844710383L194.16705373323921,106.81270136998427z" style="fill:rgb(109,0,0);fill-opacity:1"/><path d="M189.0775596229851,99.30995161753242L187.2051851411218,99.15400071582651L186.7146029040622,101.53886781009078z" style="fill:rgb(73,0,0);fill-opacity:1"/><path d="M189.991194818928,99.12572681928816L191.84787931250307,101.27836118232719L193.82579975936207,100.64243722384391z" style="fill:rgb(67,0,0);fill-opacity:1"/><path d="M187.28139443715472,107.12838275963418L185.1481111507842,107.31965840325446L189.00582662935213,109.11312436963702z" style="fill:rgb(69,0,0);fill-opacity:1"/><path d="M192.4655507302057,106.69519258636761L189.98879523229948,109.07065033081024L191.64851247740987,108.8390276973574z" style="fill:rgb(63,0,0);fill-opacity:1"/><path d="M186.70027925416028,105.4739687701124L184.14250891738882,105.68195027825713L187.70631615911435,108.23751050039044z" style="fill:rgb(103,0,0);fill-opacity:1"/><path d="M187.83534330447765,100.25074176325451L185.39360307414722,100.24704163788913L186.36386303404817,103.15446235720326z" style="fill:rgb(105,0,0);fill-opacity:1"/><path d="M191.29527085992478,99.96608839473167L192.41387437616496,102.90250393757636L194.841956541331,102.34566887691695z" style="fill:rgb(96,0,0);fill-opacity:1"/><path d="M192.74110892543925,105.01017410587659L191.24206422612727,108.13279888985548L193.52422354384464,107.81247200390597z" style="fill:rgb(93,0,0);fill-opacity:1"/><path d="M190.98786176970555,99.27890553720984L188.5461053833893,99.48410123926438L192.72636838052375,101.2398133669755z" style="fill:rgb(166,0,0);fill-opacity:1"/><path d="M186.2777632971008,106.98681182444783L188.10764768054685,109.06459594889839L190.45445959681794,108.55346284118903z" style="fill:rgb(165,0,0);fill-opacity:1"/><path d="M186.96786895912444,101.7681695651558L184.24735135389116,101.87549554080738L186.33671777192754,104.97513446043634z" style="fill:rgb(120,0,0);fill-opacity:1"/><path d="M192.23538106354115,101.41362329266683L192.5218487210182,104.76964098222639L195.15753902230605,104.27805819780276z" style="fill:rgb(110,0,0);fill-opacity:1"/><path d="M186.5798581549132,103.60232646544114L183.82086285462557,103.7776038534813L186.78471629167998,106.76643796636651z" style="fill:rgb(120,0,0);fill-opacity:1"/><path d="M192.71365262782112,103.19004848107727L192.12211195037847,106.60860209404558L194.71250344494146,106.19024061646259z" style="fill:rgb(109,0,0);fill-opacity:1"/><path d="M190.04265898350712,99.15371262442679L187.2811216599903,99.4025303184559L189.9234620424224,101.44657720056702z" style="fill:rgb(168,0,0);fill-opacity:1"/><path d="M189.1207437552792,106.70050417271992L189.04989627324187,109.22867134645206L191.6823233936433,108.67569509536327z" style="fill:rgb(162,0,0);fill-opacity:1"/><path d="M188.2099054002626,98.97043468095065L186.24971004467523,101.10165062735169L190.38025512952774,100.97443991715693z" style="fill:rgb(168,0,0);fill-opacity:1"/><path d="M192.75966174143076,107.13517168663671L188.5839820281126,107.25531211481453L190.91669176407524,109.17068173107442z" style="fill:rgb(162,0,0);fill-opacity:1"/><path d="M189.06909041585453,98.9302273378505L189.02714853861366,101.29842121074421L192.86123621102814,100.81787667686456z" style="fill:rgb(166,0,0);fill-opacity:1"/><path d="M190.02882154489524,107.00596707893196L186.13873327193505,107.33688303562302L189.97517612575757,109.21831541797069z" style="fill:rgb(165,0,0);fill-opacity:1"/><path d="M192.2397409535004,100.23196214435033L188.55711519225585,100.49981484784705L193.30600219248038,102.92046876614951z" style="fill:rgb(239,0,0);fill-opacity:1"/><path d="M185.70998982916785,105.26915718721935L186.83321500967006,108.0588171274495L190.45414293100967,107.62747068496918z" style="fill:rgb(241,0,0);fill-opacity:1"/><path d="M186.91795197519565,99.95141077492542L185.66218969242166,102.77753230806239L190.41720610223027,102.48531812623716z" style="fill:rgb(243,0,0);fill-opacity:1"/><path d="M193.3647613151744,105.48672485590029L188.57624478900098,105.70716507808989L192.16185223406123,108.1995396147698z" style="fill:rgb(237,0,0);fill-opacity:1"/><path d="M190.0332442594743,100.19701718960208L186.16887267754674,100.46010381461885L189.94061400556683,102.99512475412597z" style="fill:rgb(243,0,0);fill-opacity:1"/><path d="M189.102602662329,105.1635859422149L189.02714853861366,108.1074979250933L192.82772396455368,107.68436113232984z" style="fill:rgb(237,0,0);fill-opacity:1"/><path d="M189.0776777143794,99.95745587060955L189.0229010793829,102.83725487773172L193.59490743302007,102.4195504608837z" style="fill:rgb(239,0,0);fill-opacity:1"/><path d="M193.11095602414449,101.76137984554717L188.56451916687828,102.04537760002516L193.42454939293415,104.81204212082719z" style="fill:rgb(276,0,0);fill-opacity:1"/><path d="M185.6079696372981,103.35884124860688L185.94731375660305,106.51839699881549L190.4448981302261,106.11165294416307z" style="fill:rgb(279,0,0);fill-opacity:1"/><path d="M190.02818617898623,105.44393662562109L185.41173201951557,105.74687611131809L189.96480168280002,108.2026168118208z" style="fill:rgb(241,0,0);fill-opacity:1"/><path d="M186.01885037256693,101.49563117180719L185.5475236100896,104.66695344551077L190.43380754147074,104.29873785537802z" style="fill:rgb(280,0,0);fill-opacity:1"/><path d="M193.49604226853046,103.60690893052657L188.5704626753156,103.87573503175769L193.03351964011085,106.66372432300469z" style="fill:rgb(275,0,0);fill-opacity:1"/><path d="M190.02969465682082,101.75892774986522L185.42507950257533,102.03321212546122L189.94994572190566,104.82665969107308z" style="fill:rgb(280,0,0);fill-opacity:1"/><path d="M189.09215420914657,103.33716059528618L189.0229010793829,106.52230069032468L193.5804309382529,106.12942990597458z" style="fill:rgb(275,0,0);fill-opacity:1"/><path d="M189.08458595896502,101.50721053003163L189.02200750003843,104.67393386298123L193.8480479522132,104.28017807968313z" style="fill:rgb(276,0,0);fill-opacity:1"/><path d="M190.0283273428167,103.60141698270216L185.15998080970374,103.88790050632161L189.9572565443471,106.65705079626517z" style="fill:rgb(279,0,0);fill-opacity:1"/><path d="M-199.6479876699236,162.44971255518573L-203.4450292316157,163.21161447971383L-201.89538848224493,163.17296415530407z" style="fill:rgb(0,0,28);fill-opacity:1"/><path d="M-201.5955875903074,162.55656441563417L-199.02802799102835,163.66151076598084L-198.07402325361102,162.61621600858862z" style="fill:rgb(0,0,25);fill-opacity:1"/><path d="M-198.66112805242733,162.75318310837102L-200.27553184505487,162.88076891105845L-196.35644058029,164.61054503650809z" style="fill:rgb(0,0,67);fill-opacity:1"/><path d="M-204.91112442756625,170.49047535864224L-202.24483974720238,172.6978226167993L-201.23697956619014,171.65824955158155z" style="fill:rgb(0,0,69);fill-opacity:1"/><path d="M-201.89026866756734,171.80153162185823L-203.45085412649172,171.88612996268884L-199.64728258972517,172.56909180820995z" style="fill:rgb(0,0,23);fill-opacity:1"/><path d="M-197.7820273614031,171.8628922690286L-199.35663153297895,171.75578187635202L-201.5589799405647,172.6380792473764z" style="fill:rgb(0,0,21);fill-opacity:1"/><path d="M-201.85544562394804,162.3249023696573L-204.92522182436437,164.4848773492191L-202.7167880359783,164.4784224190707z" style="fill:rgb(0,0,73);fill-opacity:1"/><path d="M-196.94451641240886,163.66915039820728L-199.13291725310867,163.8487813189487L-195.50543453603504,166.37599095367875z" style="fill:rgb(0,0,96);fill-opacity:1"/><path d="M-205.76382508019068,168.67609542141057L-204.17400244766037,171.58562777104237L-202.16534848932733,170.93539871967295z" style="fill:rgb(0,0,103);fill-opacity:1"/><path d="M-196.3073217840392,170.62304867615106L-198.67596156226332,170.42067481634777L-199.2053053881377,172.75911895251468z" style="fill:rgb(0,0,63);fill-opacity:1"/><path d="M-203.86292461222413,163.20997069839325L-205.8239233725286,166.21556845990975L-203.15433909371168,166.03039896340982z" style="fill:rgb(0,0,105);fill-opacity:1"/><path d="M-195.72287710457968,165.17588560258616L-198.3500514708615,165.34897325134745L-195.36172269909142,168.33561762495376z" style="fill:rgb(0,0,110);fill-opacity:1"/><path d="M-205.88702932789454,166.67820907545916L-205.42817389401748,170.03652001220968L-202.93618972228634,169.51583901640444z" style="fill:rgb(0,0,120);fill-opacity:1"/><path d="M-195.3910504286766,168.9401455235013L-198.1875171170738,168.90799520552278L-197.2662895945161,171.78696573222376z" style="fill:rgb(0,0,93);fill-opacity:1"/><path d="M-200.15159280204182,162.06537766453087L-202.89708612887057,163.2401629083452L-200.09720354657537,163.52875061732755z" style="fill:rgb(0,0,62);fill-opacity:1"/><path d="M-201.08041848075533,162.0194008566986L-201.081145447894,163.74607677224645L-198.3785978125939,163.06881356125857z" style="fill:rgb(0,0,61);fill-opacity:1"/><path d="M-200.1035924803168,171.46353307398664L-202.9071790969654,171.86381063743525L-200.13511090020558,172.92940968133513z" style="fill:rgb(0,0,57);fill-opacity:1"/><path d="M-198.35950277806793,171.7496038603782L-201.51760699325152,171.66782271357994L-200.66305196992377,172.8393268187989z" style="fill:rgb(0,0,56);fill-opacity:1"/><path d="M-205.23831225985677,164.76354423224387L-206.00211253187007,168.1602163026144L-203.27012333690578,167.77923885032556z" style="fill:rgb(0,0,120);fill-opacity:1"/><path d="M-195.18059953131566,167.02954077236345L-198.03090857088603,167.13191075126645L-195.96398798789664,170.2265936741469z" style="fill:rgb(0,0,109);fill-opacity:1"/><path d="M-201.05348209815077,162.72384392169502L-202.92585658001403,162.56789301998913L-203.41643881707367,164.9527601142534z" style="fill:rgb(0,0,73);fill-opacity:1"/><path d="M-200.13984690220786,162.5396191234508L-198.2831624086328,164.6922534864898L-196.3052419617738,164.05632952800653z" style="fill:rgb(0,0,67);fill-opacity:1"/><path d="M-202.84964728398114,170.5422750637968L-204.98293057035167,170.7335507074171L-201.12521509178373,172.5270166737996z" style="fill:rgb(0,0,69);fill-opacity:1"/><path d="M-197.66549099093015,170.10908489053023L-200.14224648883638,172.48454263497288L-198.482529243726,172.25292000151998z" style="fill:rgb(0,0,63);fill-opacity:1"/><path d="M-202.2956984166582,163.66463406741713L-204.73743864698864,163.66093394205174L-203.7671786870877,166.56835466136587z" style="fill:rgb(0,0,105);fill-opacity:1"/><path d="M-198.83577086121107,163.3799806988943L-197.7171673449709,166.31639624173897L-195.28908517980486,165.75956118107956z" style="fill:rgb(0,0,96);fill-opacity:1"/><path d="M-203.43076246697558,168.887861074275L-205.98853280374703,169.09584258241975L-202.4247255620215,171.65140280455307z" style="fill:rgb(0,0,103);fill-opacity:1"/><path d="M-197.3899327956966,168.4240664100392L-198.8889774950086,171.5466911940181L-196.60681817729122,171.22636430806858z" style="fill:rgb(0,0,93);fill-opacity:1"/><path d="M-199.1431799514303,162.69279784137245L-201.58493633774657,162.897993543427L-197.4046733406121,164.6537056711381z" style="fill:rgb(0,0,166);fill-opacity:1"/><path d="M-203.85327842403507,170.40070412861044L-202.023394040589,172.47848825306102L-199.67658212431792,171.96735514535163z" style="fill:rgb(0,0,165);fill-opacity:1"/><path d="M-203.1631727620114,165.18206186931843L-205.8836903672447,165.28938784496998L-203.79432394920832,168.38902676459895z" style="fill:rgb(0,0,120);fill-opacity:1"/><path d="M-197.8956606575947,164.82751559682944L-197.60919300011767,168.183533286389L-194.9735026988298,167.69195050196538z" style="fill:rgb(0,0,110);fill-opacity:1"/><path d="M-203.55118356622265,167.01621876960377L-206.31017886651026,167.1914961576439L-203.34632542945587,170.1803302705291z" style="fill:rgb(0,0,120);fill-opacity:1"/><path d="M-197.41738909331474,166.60394078523987L-198.0089297707574,170.02249439820818L-195.4185382761944,169.60413292062523z" style="fill:rgb(0,0,109);fill-opacity:1"/><path d="M-201.01029796585667,170.11439647688255L-201.081145447894,172.64256365061468L-198.44871832749257,172.08958739952587z" style="fill:rgb(0,0,162);fill-opacity:1"/><path d="M-200.08838273762873,162.5676049285894L-202.84992006114555,162.81642262261852L-200.20757967871347,164.86046950472965z" style="fill:rgb(0,0,168);fill-opacity:1"/><path d="M-197.3713799797051,170.5490639907993L-201.54705969302327,170.66920441897716L-199.21434995706062,172.58457403523704z" style="fill:rgb(0,0,162);fill-opacity:1"/><path d="M-201.92113632087325,162.38432698511323L-203.88133167646063,164.51554293151432L-199.75078659160812,164.38833222131956z" style="fill:rgb(0,0,168);fill-opacity:1"/><path d="M-201.06195130528133,162.3441196420131L-201.1038931825222,164.71231351490684L-197.26980551010772,164.23176898102716z" style="fill:rgb(0,0,166);fill-opacity:1"/><path d="M-200.10222017624062,170.41985938309458L-203.9923084492008,170.75077533978563L-200.1558655953783,172.6322077221333z" style="fill:rgb(0,0,165);fill-opacity:1"/><path d="M-197.89130076763547,163.64585444851295L-201.57392652888,163.91370715200966L-196.82503952865548,166.33436107031213z" style="fill:rgb(0,0,239);fill-opacity:1"/><path d="M-204.421051891968,168.68304949138195L-203.2978267114658,171.47270943161212L-199.6768987901262,171.0413629891318z" style="fill:rgb(0,0,241);fill-opacity:1"/><path d="M-203.2130897459402,163.36530307908805L-204.4688520287142,166.191424612225L-199.7138356189056,165.89921043039976z" style="fill:rgb(0,0,243);fill-opacity:1"/><path d="M-196.76628040596145,168.9006171600629L-201.55479693213488,169.1210573822525L-197.96918948707463,171.61343191893243z" style="fill:rgb(0,0,237);fill-opacity:1"/><path d="M-200.09779746166157,163.6109094937647L-203.9621690435891,163.87399611878146L-200.19042771556903,166.40901705828858z" style="fill:rgb(0,0,243);fill-opacity:1"/><path d="M-201.02843905880687,168.5774782463775L-201.1038931825222,171.52139022925593L-197.30331775658217,171.09825343649246z" style="fill:rgb(0,0,237);fill-opacity:1"/><path d="M-201.05336400675645,163.37134817477218L-201.10814064175295,166.25114718189434L-196.5361342881158,165.8334427650463z" style="fill:rgb(0,0,239);fill-opacity:1"/><path d="M-197.02008569699137,165.1752721497098L-201.56652255425757,165.45926990418778L-196.7064923282017,168.2259344249898z" style="fill:rgb(0,0,276);fill-opacity:1"/><path d="M-204.52307208383775,166.7727335527695L-204.1837279645328,169.93228930297812L-199.68614359090975,169.52554524832567z" style="fill:rgb(0,0,279);fill-opacity:1"/><path d="M-200.10285554214963,168.8578289297837L-204.7193097016203,169.1607684154807L-200.16624003833584,171.61650911598343z" style="fill:rgb(0,0,241);fill-opacity:1"/><path d="M-196.6349994526054,167.02080123468917L-201.56057904582025,167.2896273359203L-197.097522081025,170.07761662716732z" style="fill:rgb(0,0,275);fill-opacity:1"/><path d="M-204.11219134856893,164.90952347596982L-204.58351811104626,168.0808457496734L-199.69723417966512,167.71263015954062z" style="fill:rgb(0,0,280);fill-opacity:1"/><path d="M-201.0388875119893,166.7510528994488L-201.10814064175295,169.9361929944873L-196.55061078288296,169.54332221013718z" style="fill:rgb(0,0,275);fill-opacity:1"/><path d="M-200.10134706431504,165.17282005402785L-204.70596221856053,165.44710442962383L-200.1810959992302,168.24055199523568z" style="fill:rgb(0,0,280);fill-opacity:1"/><path d="M-201.04645576217084,164.92110283419424L-201.10903422109743,168.08782616714385L-196.28299376892267,167.69407038384574z" style="fill:rgb(0,0,276);fill-opacity:1"/><path d="M-200.10271437831915,167.01530928686478L-204.97106091143212,167.30179281048424L-200.17378517678875,170.07094310042777z" style="fill:rgb(0,0,279);fill-opacity:1"/><path d="M201.5806937363201,4.9993478044254696L197.78365217462797,5.761249728953579L199.33329292399875,5.722599404543826z" style="fill:rgb(0,0,28);fill-opacity:1"/><path d="M199.6330938159363,5.1061996648739205L202.20065341521544,6.211146015220625L203.15465815263258,5.165851257828328z" style="fill:rgb(0,0,25);fill-opacity:1"/><path d="M202.56755335381635,5.302818357610754L200.95314956118884,5.43040416029819L204.87224082595367,7.160180285747869z" style="fill:rgb(0,0,67);fill-opacity:1"/><path d="M196.31755697867743,13.040110607882005L198.9838416590413,15.247457866039053L199.99170184005354,14.207884800821299z" style="fill:rgb(0,0,69);fill-opacity:1"/><path d="M199.33841273867634,14.351166871097984L197.77782727975196,14.435765211928588L201.58139881651852,15.118727057449725z" style="fill:rgb(0,0,23);fill-opacity:1"/><path d="M203.44665404484059,14.412527518268355L201.87204987326476,14.305417125591772L199.66970146567897,15.18771449661617z" style="fill:rgb(0,0,21);fill-opacity:1"/><path d="M199.37323578229564,4.874537618897063L196.3034595818793,7.034512598458865L198.51189337026537,7.028057668310454z" style="fill:rgb(0,0,73);fill-opacity:1"/><path d="M204.28416499383482,6.218785647447046L202.095764153135,6.398416568188472L205.7232468702086,8.925626202918501z" style="fill:rgb(0,0,96);fill-opacity:1"/><path d="M195.464856326053,11.225730670650313L197.0546789585833,14.135263020282139L199.06333291691635,13.485033968912699z" style="fill:rgb(0,0,103);fill-opacity:1"/><path d="M204.92135962220448,13.172683925390814L202.55271984398036,12.970310065587528L202.02337601810598,15.308754201754446z" style="fill:rgb(0,0,63);fill-opacity:1"/><path d="M197.36575679401955,5.759605947632994L195.40475803371507,8.765203709149509L198.07434231253197,8.58003421264959z" style="fill:rgb(0,0,105);fill-opacity:1"/><path d="M205.50580430166397,7.725520851825906L202.87862993538218,7.898608500587192L205.86695870715226,10.885252874193537z" style="fill:rgb(0,0,110);fill-opacity:1"/><path d="M195.3416520783491,9.227844324698921L195.8005075122262,12.586155261449436L198.2924916839573,12.065474265644179z" style="fill:rgb(0,0,120);fill-opacity:1"/><path d="M205.83763097756704,11.489780772741033L203.04116428916987,11.457630454762526L203.96239181172757,14.33660098146352z" style="fill:rgb(0,0,93);fill-opacity:1"/><path d="M201.07708860420186,4.615012913770618L198.3315952773731,5.789798157584963L201.1314778596683,6.0783858665672925z" style="fill:rgb(0,0,62);fill-opacity:1"/><path d="M200.14826292548835,4.569036105938377L200.1475359583497,6.295712021486201L202.8500835936498,5.618448810498296z" style="fill:rgb(0,0,61);fill-opacity:1"/><path d="M201.1250889259269,14.013168323226388L198.3215023092783,14.413445886674989L201.0935705060381,15.47904493057492z" style="fill:rgb(0,0,57);fill-opacity:1"/><path d="M202.86917862817577,14.299239109617927L199.7110744129922,14.217457962819685L200.56562943631988,15.388962068038685z" style="fill:rgb(0,0,56);fill-opacity:1"/><path d="M195.9903691463869,7.313179481483607L195.22656887437358,10.709851551854184L197.9585580693379,10.32887409956532z" style="fill:rgb(0,0,120);fill-opacity:1"/><path d="M206.04808187492802,9.579176021603221L203.19777283535765,9.681546000506215L205.264693418347,12.776228923386626z" style="fill:rgb(0,0,109);fill-opacity:1"/><path d="M200.1751993080929,5.2734791709347775L198.30282482622965,5.11752826922887L197.81224258917,7.502395363493165z" style="fill:rgb(0,0,73);fill-opacity:1"/><path d="M201.08883450403584,5.089254372690517L202.9455189976109,7.241888735729575L204.9234394444699,6.605964777246289z" style="fill:rgb(0,0,67);fill-opacity:1"/><path d="M198.37903412226254,13.091910313036564L196.245750835892,13.283185956656848L200.10346631445995,15.076651923039377z" style="fill:rgb(0,0,69);fill-opacity:1"/><path d="M203.56319041531353,12.658720139769988L201.08643491740733,15.034177884212621L202.7461521625177,14.802555250759747z" style="fill:rgb(0,0,63);fill-opacity:1"/><path d="M198.93298298958547,6.214269316656895L196.49124275925504,6.210569191291503L197.46150271915596,9.11798991060562z" style="fill:rgb(0,0,105);fill-opacity:1"/><path d="M202.3929105450326,5.929615948134055L203.51151406127278,8.866031490978722L205.9395962264388,8.309196430319313z" style="fill:rgb(0,0,96);fill-opacity:1"/><path d="M197.79791893926807,11.437496323514761L195.24014860249665,11.645477831659495L198.80395584422217,14.201038053792825z" style="fill:rgb(0,0,103);fill-opacity:1"/><path d="M203.83874861054707,10.973701659278948L202.3397039112351,14.09632644325786L204.62186322895246,13.775999557308344z" style="fill:rgb(0,0,93);fill-opacity:1"/><path d="M202.0855014548134,5.242433090612197L199.6437450684971,5.447628792666736L203.82400806563157,7.20334092037788z" style="fill:rgb(0,0,166);fill-opacity:1"/><path d="M197.3754029822086,12.950339377850206L199.20528736565467,15.028123502300758L201.55209928192576,14.516990394591392z" style="fill:rgb(0,0,165);fill-opacity:1"/><path d="M198.0655086442322,7.731697118558173L195.34499103899898,7.839023094209742L197.4343574570354,10.938662013838721z" style="fill:rgb(0,0,120);fill-opacity:1"/><path d="M203.33302074864898,7.377150846069195L203.619488406126,10.73316853562876L206.25517870741388,10.241585751205156z" style="fill:rgb(0,0,110);fill-opacity:1"/><path d="M197.67749784002103,9.565854018843517L194.9185025397334,9.741131406883667L197.88235597678778,12.729965519768877z" style="fill:rgb(0,0,120);fill-opacity:1"/><path d="M203.81129231292894,9.15357603447965L203.2197516354863,12.572129647447934L205.81014313004925,12.153768169864952z" style="fill:rgb(0,0,109);fill-opacity:1"/><path d="M201.14029866861495,5.117240177829149L198.37876134509813,5.36605787185826L201.0211017275302,7.410104753969404z" style="fill:rgb(0,0,168);fill-opacity:1"/><path d="M200.21838344038702,12.664031726122301L200.1475359583497,15.192198899854427L202.77996307875114,14.639222648765628z" style="fill:rgb(0,0,162);fill-opacity:1"/><path d="M199.30754508537046,4.9339622343529985L197.34734972978305,7.065178180754063L201.47789481463553,6.93796747055932z" style="fill:rgb(0,0,168);fill-opacity:1"/><path d="M203.85730142653858,13.098699240039084L199.6816217132204,13.21883966821692L202.0143314491831,15.134209284476785z" style="fill:rgb(0,0,162);fill-opacity:1"/><path d="M200.16673010096235,4.89375489125285L200.12478822372148,7.261948764146588L203.95887589613596,6.7814042302669435z" style="fill:rgb(0,0,166);fill-opacity:1"/><path d="M201.12646123000306,12.969494632334346L197.23637295704287,13.300410589025393L201.0728158108654,15.18184297137305z" style="fill:rgb(0,0,165);fill-opacity:1"/><path d="M196.80762951427565,11.23268474062171L197.93085469477788,14.022344680851868L201.5517826161175,13.590998238371572z" style="fill:rgb(0,0,241);fill-opacity:1"/><path d="M203.3373806386082,6.195489697752708L199.65475487736367,6.463342401249424L204.4036418775882,8.883996319551887z" style="fill:rgb(0,0,239);fill-opacity:1"/><path d="M198.01559166030347,5.914938328327813L196.75982937752946,8.741059861464747L201.5148457873381,8.44884567963953z" style="fill:rgb(0,0,243);fill-opacity:1"/><path d="M204.46240100028223,11.450252409302644L199.6738844741088,11.670692631492251L203.25949191916905,14.163067168172185z" style="fill:rgb(0,0,237);fill-opacity:1"/><path d="M201.1308839445821,6.1605447430044595L197.26651236265457,6.42363136802123L201.03825369067465,8.95865230752833z" style="fill:rgb(0,0,243);fill-opacity:1"/><path d="M200.2002423474368,11.127113495617246L200.12478822372148,14.071025478495677L203.9253636496615,13.647888685732227z" style="fill:rgb(0,0,237);fill-opacity:1"/><path d="M200.17531739948723,5.920983424011932L200.12054076449073,8.800782431134095L204.6925471181279,8.383078014286063z" style="fill:rgb(0,0,239);fill-opacity:1"/><path d="M204.2085957092523,7.724907398949542L199.6621588519861,8.008905153427525L204.52218907804198,10.775569674229569z" style="fill:rgb(0,0,276);fill-opacity:1"/><path d="M196.70560932240593,9.322368802009258L197.04495344171085,12.481924552217848L201.54253781533393,12.07518049756543z" style="fill:rgb(0,0,279);fill-opacity:1"/><path d="M201.12582586409405,11.40746417902345L196.50937170462336,11.710403664720445L201.06244136790784,14.166144365223186z" style="fill:rgb(0,0,241);fill-opacity:1"/><path d="M197.11649005767472,7.459158725209564L196.64516329519742,10.630480998913153L201.53144722657856,10.262265408780394z" style="fill:rgb(0,0,280);fill-opacity:1"/><path d="M204.59368195363828,9.570436483928951L199.66810236042343,9.839262585160064L204.13115932521868,12.627251876407046z" style="fill:rgb(0,0,275);fill-opacity:1"/><path d="M201.12733434192864,7.722455303267596L196.52271918768312,7.996739678863591L201.0475854070135,10.79018724447545z" style="fill:rgb(0,0,280);fill-opacity:1"/><path d="M200.1897938942544,9.300688148688566L200.12054076449073,12.485828243727045L204.67807062336072,12.092957459376924z" style="fill:rgb(0,0,275);fill-opacity:1"/><path d="M200.18222564407284,7.470738083434002L200.11964718514625,10.63746141638361L204.94568763732102,10.243705633085499z" style="fill:rgb(0,0,276);fill-opacity:1"/><path d="M201.12596702792453,9.564944536104536L196.25762049481156,9.851428059724L201.05489622945493,12.620578349667525z" style="fill:rgb(0,0,279);fill-opacity:1"/><path d="M-40.866559605537965,-172.58063563913447L-44.6636011672301,-171.81873371460637L-43.11396041785929,-171.85738403901613z" style="fill:rgb(0,0,28);fill-opacity:1"/><path d="M-42.81415952592177,-172.47378377868603L-40.246599926642745,-171.3688374283394L-39.29259518922536,-172.41413218573155z" style="fill:rgb(0,0,25);fill-opacity:1"/><path d="M-39.87969998804169,-172.27716508594918L-41.494103780669235,-172.14957928326174L-37.57501251590438,-170.4198031578121z" style="fill:rgb(0,0,67);fill-opacity:1"/><path d="M-46.12969636318063,-164.53987283567795L-43.4634116828168,-162.33252557752093L-42.45555150180448,-163.37209864273862z" style="fill:rgb(0,0,69);fill-opacity:1"/><path d="M-43.1088406031817,-163.22881657246197L-44.6694260621061,-163.14421823163136L-40.86585452533956,-162.46125638611025z" style="fill:rgb(0,0,23);fill-opacity:1"/><path d="M-39.00059929701747,-163.1674559252916L-40.5752034685933,-163.27456631796818L-42.777551876179096,-162.3922689469438z" style="fill:rgb(0,0,21);fill-opacity:1"/><path d="M-43.074017559562414,-172.7054458246629L-46.143793759978756,-170.5454708451011L-43.9353599715927,-170.5519257752495z" style="fill:rgb(0,0,73);fill-opacity:1"/><path d="M-38.16308834802321,-171.36119779611292L-40.35148918872305,-171.1815668753715L-36.72400647164944,-168.65435724064145z" style="fill:rgb(0,0,96);fill-opacity:1"/><path d="M-46.98239701580506,-166.35425277290963L-45.392574383274734,-163.44472042327783L-43.383920424941714,-164.09494947464725z" style="fill:rgb(0,0,103);fill-opacity:1"/><path d="M-37.525893719653574,-164.40729951816914L-39.89453349787769,-164.60967337797243L-40.42387732375207,-162.27122924180551z" style="fill:rgb(0,0,63);fill-opacity:1"/><path d="M-45.08149654783853,-171.82037749592695L-47.042495308142975,-168.81477973441045L-44.37291102932606,-168.99994923091037z" style="fill:rgb(0,0,105);fill-opacity:1"/><path d="M-36.94144904019408,-169.85446259173403L-39.56862340647587,-169.68137494297275L-36.58029463470575,-166.69473056936644z" style="fill:rgb(0,0,110);fill-opacity:1"/><path d="M-47.10560126350894,-168.35213911886103L-46.64674582963183,-164.99382818211052L-44.15476165790074,-165.51450917791576z" style="fill:rgb(0,0,120);fill-opacity:1"/><path d="M-36.60962236429101,-166.0902026708189L-39.40608905268818,-166.12235298879742L-38.484861530130445,-163.24338246209643z" style="fill:rgb(0,0,93);fill-opacity:1"/><path d="M-41.37016473765623,-172.96497052978933L-44.11565806448491,-171.79018528597499L-41.315775482189736,-171.50159757699265z" style="fill:rgb(0,0,62);fill-opacity:1"/><path d="M-42.29899041636972,-173.0109473376216L-42.29971738350836,-171.28427142207374L-39.597169748208266,-171.96153463306163z" style="fill:rgb(0,0,61);fill-opacity:1"/><path d="M-41.322164415931184,-163.56681512033356L-44.125751032579764,-163.16653755688495L-41.35368283581993,-162.10093851298507z" style="fill:rgb(0,0,57);fill-opacity:1"/><path d="M-39.578074713682305,-163.280744333942L-42.73617892886588,-163.36252548074026L-41.881623905538156,-162.1910213755213z" style="fill:rgb(0,0,56);fill-opacity:1"/><path d="M-46.45688419547113,-170.26680396207632L-47.22068446748448,-166.8701318917058L-44.488695272520154,-167.25110934399464z" style="fill:rgb(0,0,120);fill-opacity:1"/><path d="M-36.39917146693001,-168.00080742195675L-39.249480506500376,-167.89843744305375L-37.182559923511064,-164.8037545201733z" style="fill:rgb(0,0,109);fill-opacity:1"/><path d="M-42.27205403376513,-172.30650427262515L-44.144428515628405,-172.46245517433107L-44.63501075268805,-170.07758808006682z" style="fill:rgb(0,0,73);fill-opacity:1"/><path d="M-41.358418837822235,-172.4907290708694L-39.501734344247154,-170.3380947078304L-37.52381389738815,-170.97401866631367z" style="fill:rgb(0,0,67);fill-opacity:1"/><path d="M-44.06821921959551,-164.4880731305234L-46.201502505966054,-164.2967974869031L-42.3437870273981,-162.5033315205206z" style="fill:rgb(0,0,69);fill-opacity:1"/><path d="M-38.884062926544544,-164.92126330379L-41.360818424450756,-162.54580555934731L-39.70110117934033,-162.7774281928002z" style="fill:rgb(0,0,63);fill-opacity:1"/><path d="M-43.51427035227259,-171.36571412690307L-45.95601058260303,-171.36941425226846L-44.98575062270208,-168.46199353295432z" style="fill:rgb(0,0,105);fill-opacity:1"/><path d="M-40.05434279682545,-171.6503674954259L-38.935739280585274,-168.71395195258123L-36.50765711541923,-169.27078701324064z" style="fill:rgb(0,0,96);fill-opacity:1"/><path d="M-44.649334402589986,-166.1424871200452L-47.20710473936141,-165.93450561190045L-43.64329749763586,-163.37894538976713z" style="fill:rgb(0,0,103);fill-opacity:1"/><path d="M-38.60850473131096,-166.606281784281L-40.10754943062295,-163.4836570003021L-37.825390112905595,-163.80398388625161z" style="fill:rgb(0,0,93);fill-opacity:1"/><path d="M-40.36175188704467,-172.33755035294774L-42.80350827336093,-172.1323546508932L-38.6232452762265,-170.37664252318208z" style="fill:rgb(0,0,166);fill-opacity:1"/><path d="M-45.07185035964943,-164.62964406570975L-43.241965976203375,-162.55185994125918L-40.89515405993231,-163.06299304896856z" style="fill:rgb(0,0,165);fill-opacity:1"/><path d="M-44.38174469762582,-169.84828632500177L-47.10226230285905,-169.74096034935022L-45.0128958848227,-166.64132142972124z" style="fill:rgb(0,0,120);fill-opacity:1"/><path d="M-39.11423259320908,-170.20283259749075L-38.82776493573202,-166.8468149079312L-36.192074634444154,-167.33839769235482z" style="fill:rgb(0,0,110);fill-opacity:1"/><path d="M-44.76975550183703,-168.01412942471643L-47.52875080212467,-167.8388520366763L-44.56489736507025,-164.85001792379109z" style="fill:rgb(0,0,120);fill-opacity:1"/><path d="M-38.635961028929096,-168.42640740908033L-39.22750170637177,-165.00785379611202L-36.637110211808775,-165.42621527369496z" style="fill:rgb(0,0,109);fill-opacity:1"/><path d="M-41.30695467324311,-172.4627432657308L-44.068491996759924,-172.21392557170168L-41.42615161432784,-170.16987868959055z" style="fill:rgb(0,0,168);fill-opacity:1"/><path d="M-42.228869901471036,-164.91595171743765L-42.29971738350836,-162.38778454370552L-39.66729026310695,-162.94076079479433z" style="fill:rgb(0,0,162);fill-opacity:1"/><path d="M-43.139708256487594,-172.64602120920694L-45.09990361207503,-170.5148052628059L-40.96935852722249,-170.64201597300064z" style="fill:rgb(0,0,168);fill-opacity:1"/><path d="M-38.589951915319475,-164.4812842035209L-42.76563162863765,-164.36114377534304L-40.43292189267497,-162.44577415908316z" style="fill:rgb(0,0,162);fill-opacity:1"/><path d="M-41.32079211185498,-164.61048881122562L-45.21088038481517,-164.27957285453456L-41.3744375309927,-162.3981404721869z" style="fill:rgb(0,0,165);fill-opacity:1"/><path d="M-42.2805232408957,-172.68622855230709L-42.322465118136584,-170.31803467941336L-38.48837744572209,-170.79857921329304z" style="fill:rgb(0,0,166);fill-opacity:1"/><path d="M-39.10987270324984,-171.38449374580725L-42.79249846449438,-171.11664104231053L-38.043611464269844,-168.69598712400807z" style="fill:rgb(0,0,239);fill-opacity:1"/><path d="M-45.63962382758238,-166.34729870293825L-44.51639864708019,-163.55763876270808L-40.89547072574057,-163.98898520518838z" style="fill:rgb(0,0,241);fill-opacity:1"/><path d="M-44.431661681554594,-171.66504511523215L-45.68742396432858,-168.8389235820952L-40.93240755451997,-169.13113776392044z" style="fill:rgb(0,0,243);fill-opacity:1"/><path d="M-37.9848523415758,-166.1297310342573L-42.77336886774924,-165.9092908120677L-39.18776142268902,-163.41691627538776z" style="fill:rgb(0,0,237);fill-opacity:1"/><path d="M-41.316369397275956,-171.4194387005555L-45.18074097920348,-171.15635207553873L-41.408999651183414,-168.6213311360316z" style="fill:rgb(0,0,243);fill-opacity:1"/><path d="M-42.24701099442124,-166.4528699479427L-42.322465118136584,-163.50895796506427L-38.521889692196545,-163.93209475782774z" style="fill:rgb(0,0,237);fill-opacity:1"/><path d="M-42.27193594237082,-171.65900001954802L-42.32671257736733,-168.77920101242586L-37.75470622373016,-169.1969054292739z" style="fill:rgb(0,0,239);fill-opacity:1"/><path d="M-38.238657632605715,-169.8550760446104L-42.78509448987195,-169.57107829013242L-37.92506426381608,-166.8044137693304z" style="fill:rgb(0,0,276);fill-opacity:1"/><path d="M-45.74164401945213,-168.2576146415507L-45.4022999001472,-165.09805889134208L-40.90471552652413,-165.50480294599453z" style="fill:rgb(0,0,279);fill-opacity:1"/><path d="M-41.321427477764,-166.1725192645365L-45.937881637234675,-165.8695797788395L-41.384811973950235,-163.41383907833676z" style="fill:rgb(0,0,241);fill-opacity:1"/><path d="M-45.33076328418333,-170.12082471835038L-45.80209004666065,-166.9495024446468L-40.91580611527948,-167.31771803477957z" style="fill:rgb(0,0,280);fill-opacity:1"/><path d="M-37.85357138821976,-168.00954695963102L-42.77915098143463,-167.7407208583999L-38.316094016639354,-164.95273156715288z" style="fill:rgb(0,0,275);fill-opacity:1"/><path d="M-41.31991899992943,-169.85752814029235L-45.92453415417493,-169.58324376469636L-41.39966793484455,-166.78979619908452z" style="fill:rgb(0,0,280);fill-opacity:1"/><path d="M-42.25745944760367,-168.2792952948714L-42.32671257736733,-165.0941551998329L-37.769182718497305,-165.48702598418302z" style="fill:rgb(0,0,275);fill-opacity:1"/><path d="M-42.265027697785214,-170.10924536012595L-42.3276061567118,-166.94252202717635L-37.501565704537036,-167.33627781047446z" style="fill:rgb(0,0,276);fill-opacity:1"/><text x="-215.8990372003717" y="178.75450577659453" z="-0.9967639302784046" font-family="Verdana" font-size="11" fill="rgb(0,0,0)">Axis 3 (5.525 %)</text><path d="M-41.32128631393352,-168.01503890745542L-46.189632847046504,-167.72855538383595L-41.39235711240314,-164.95940509389243z" style="fill:rgb(0,0,279);fill-opacity:1"/></svg>